<?xml version="1.0" standalone="no"?>
<!DOCTYPE svg PUBLIC "-//W3C//DTD SVG 20010904//EN"
 "http://www.w3.org/TR/2001/REC-SVG-20010904/DTD/svg10.dtd">
<svg version="1.0" xmlns="http://www.w3.org/2000/svg"
 width="584.000000pt" height="587.000000pt" viewBox="0 0 584.000000 587.000000"
 preserveAspectRatio="xMidYMid meet">

<g transform="translate(0.000000,587.000000) scale(0.100000,-0.100000)"
fill="#000000" stroke="none">
<path d="M2845 5342 c-102 -39 -2194 -974 -2420 -1082 -112 -54 -133 -76 -121
-124 7 -30 18 -36 291 -161 l200 -92 3 -277 2 -276 -36 -33 c-44 -38 -73 -98
-74 -148 0 -44 43 -132 75 -153 23 -15 24 -18 11 -54 -22 -62 -97 -421 -103
-494 -9 -101 -16 -98 213 -98 l194 0 12 25 c15 33 1 128 -57 391 l-46 206 36
39 c44 49 55 77 55 135 0 59 -22 109 -65 150 l-35 33 2 236 3 235 45 -22 45
-23 150 69 c309 141 601 257 1255 498 466 171 477 173 526 127 17 -16 24 -34
24 -59 0 -44 -22 -67 -71 -76 -45 -9 -913 -329 -1109 -409 -85 -35 -231 -98
-325 -140 -93 -42 -177 -79 -185 -81 -13 -4 -15 -48 -12 -327 2 -176 4 -322 6
-324 1 -1 31 13 67 32 118 64 376 136 611 170 152 23 413 30 538 16 130 -15
244 -43 315 -78 l54 -27 58 32 c108 57 236 82 439 86 l82 1 293 271 c500 460
635 579 693 607 74 37 146 50 233 45 111 -7 194 -52 317 -173 54 -52 101 -95
105 -95 15 0 338 154 376 179 44 29 57 69 33 98 -20 25 -142 81 -1233 566
-1477 657 -1372 615 -1470 579z"/>
<path d="M4598 4006 c-21 -8 -48 -20 -61 -29 -31 -20 -172 -150 -172 -158 0
-3 122 -130 271 -283 l272 -276 68 73 c92 98 126 161 132 246 7 105 -16 146
-158 285 -80 78 -134 123 -165 136 -54 23 -132 25 -187 6z"/>
<path d="M4194 3679 c-48 -51 -630 -597 -894 -839 -511 -468 -746 -689 -757
-711 -12 -23 -238 -611 -302 -787 -23 -62 -28 -84 -18 -88 13 -4 156 45 472
164 299 112 371 142 405 167 19 14 109 97 200 183 91 87 239 225 330 307 177
160 217 198 789 724 l373 344 -99 101 c-353 361 -458 466 -463 466 -3 0 -19
-14 -36 -31z m-1310 -1911 l110 -104 -198 -78 -198 -78 -61 60 -60 60 73 191
73 190 76 -68 c42 -38 125 -116 185 -173z"/>
<path d="M2030 3015 c-264 -35 -496 -106 -647 -198 l-53 -31 0 -967 0 -967 65
14 c154 32 377 42 570 24 392 -36 721 -174 910 -382 l58 -63 61 64 c90 94 177
156 311 222 142 69 263 110 417 140 154 31 531 34 678 6 52 -10 110 -21 128
-24 l32 -6 0 928 0 927 -32 -27 c-18 -15 -98 -89 -178 -164 -80 -75 -273 -254
-430 -397 -157 -143 -370 -343 -475 -444 -104 -100 -214 -198 -244 -218 -77
-50 -163 -87 -456 -197 -478 -180 -531 -194 -607 -156 -54 26 -90 78 -95 139
-4 42 13 92 167 487 94 242 181 456 194 475 49 73 182 207 499 500 180 167
326 305 324 307 -10 9 -169 -51 -232 -88 -67 -39 -71 -40 -95 -25 -67 44 -152
80 -239 103 -86 23 -119 26 -311 29 -145 2 -249 -2 -320 -11z"/>
<path d="M1489 715 c-102 -14 -242 -45 -349 -76 -72 -21 -96 -41 -175 -149
-58 -80 -67 -103 -55 -135 19 -49 44 -50 196 -12 357 91 728 102 1052 32 226
-49 387 -119 552 -240 124 -90 155 -105 224 -105 82 0 137 24 217 96 87 78
156 121 272 168 193 80 380 115 658 123 266 8 364 -5 781 -100 39 -9 50 -8 72
6 45 30 36 70 -37 173 -77 109 -99 122 -283 169 -202 52 -303 65 -514 65 -260
0 -434 -30 -634 -111 -121 -48 -212 -104 -326 -198 -104 -87 -133 -101 -204
-101 -70 0 -112 20 -203 98 -154 132 -299 205 -521 262 -195 49 -505 64 -723
35z"/>
</g>
</svg>
